# xmcd
#
# Track frame offsets: 
#        150
#        29443
#        48170
#        76782
#        108091
#        129772
#        151366
#
# Disc length: 2224 seconds
#
# Revision: 0
# Processed by: cddbd v1.5.2PL0 Copyright (c) Steve Scherf et al.
# Submitted via: ExactAudioCopy v1.0b1
#
DISCID=4208ae07
DTITLE=B.T. Express - Keep It Up
DYEAR=1982
DGENRE=Funk
TTITLE0=This Must Be The Night For Love
TTITLE1=It's Got To Be You
TTITLE2=Star Child
TTITLE3=Keep It Up
TTITLE4=Just Can't Stop Dancin'
TTITLE5=Dancin' Dream
TTITLE6=Let Yourself Go
EXTD=
EXTT0=
EXTT1=
EXTT2=
EXTT3=
EXTT4=
EXTT5=
EXTT6=
PLAYORDER=
